<svg width="50" height="50" viewBox="0 0 50 50" fill="none" xmlns="http://www.w3.org/2000/svg">
<path d="M25 1C11.7451 1 1 11.7451 1 25C1 38.2549 11.7451 49 25 49C38.2549 49 49 38.2549 49 25C49 17.892 45.9099 11.5057 41 7.11114" stroke="#212121" stroke-width="2" stroke-miterlimit="10" stroke-linecap="round"/>
<path d="M24.9999 39.8583C33.2053 39.8583 39.8571 33.2066 39.8571 25.0012C39.8571 16.7958 33.2053 10.144 24.9999 10.144C16.7945 10.144 10.1428 16.7958 10.1428 25.0012" stroke="#212121" stroke-width="2" stroke-miterlimit="10" stroke-linecap="round"/>
<path d="M19.2858 38.7188C15.6791 37.2147 12.7924 34.3299 11.2858 30.7246" stroke="#212121" stroke-width="2" stroke-miterlimit="10" stroke-linecap="round"/>
<path d="M25.0001 30.7147C28.1559 30.7147 30.7143 28.1563 30.7143 25.0004C30.7143 21.8445 28.1559 19.2861 25.0001 19.2861C21.8442 19.2861 19.2858 21.8445 19.2858 25.0004C19.2858 28.1563 21.8442 30.7147 25.0001 30.7147Z" stroke="#212121" stroke-width="2" stroke-miterlimit="10" stroke-linecap="round"/>
</svg>
