<svg width="424" height="610" viewBox="0 0 424 610" fill="none" xmlns="http://www.w3.org/2000/svg">
<path d="M203.712 602.092L204.859 596.279L210.694 595.298L277.426 584.076L292.268 581.58C292.615 575.263 292.532 568.422 292.214 561.797C292.102 559.441 291.957 557.128 291.798 554.894L288.812 554.232L219.751 538.88L211.825 537.118L213.161 529.092L245.944 331.946L247.223 324.258L254.981 324.797C256.139 324.877 257.301 324.706 258.387 324.293C259.472 323.881 260.456 323.236 261.269 322.406L267.454 316.097L273.558 322.483L404.955 459.918C406.173 461.123 407.817 461.8 409.53 461.8C411.258 461.8 412.915 461.112 414.136 459.887C415.357 458.663 416.044 457.003 416.044 455.271C416.044 453.54 415.357 451.879 414.136 450.655L414.092 450.612L414.05 450.568L283.363 315.816L273.789 305.944L286.849 301.678C312.653 293.248 339.051 286.771 365.818 282.299C369.105 274.943 369.335 266.191 368.261 258.191C367.661 253.715 366.695 249.793 365.877 246.997C365.787 246.687 365.698 246.393 365.612 246.113C341.971 236.64 324.383 232.305 310.494 228.387C296.323 224.389 284.171 220.449 275.493 210.025L270.374 203.874L276.146 198.333L421.343 58.9117L421.453 58.8064L421.568 58.7043C422.285 58.0628 422.869 57.2845 423.285 56.4153C423.7 55.5464 423.941 54.6035 423.99 53.6411C424.04 52.6785 423.899 51.7147 423.575 50.8071C423.28 49.9826 422.838 49.2203 422.274 48.553C421.64 47.9825 420.91 47.5277 420.116 47.2146C419.238 46.8684 418.299 46.7006 417.357 46.7196C416.413 46.7386 415.483 46.9447 414.619 47.3259C413.755 47.7072 412.975 48.256 412.325 48.9407L412.188 49.085L412.044 49.2232L275.713 179.936L264.423 190.762L261.396 175.397C258.615 161.273 256.434 142.571 254.192 117.494V117.487C248.883 57.5455 236.56 27.8153 226.526 13.302C221.552 6.10824 217.164 2.68077 214.454 1.07638C213.586 0.562066 212.867 0.221653 212.328 0C211.826 0.192319 211.163 0.486007 210.362 0.928895C207.714 2.39247 203.327 5.61193 198.184 12.5996C187.803 26.7042 174.507 55.9478 166.584 115.704L166.582 115.716C163.805 136.458 161.35 152.822 158.586 165.748L155.204 181.569L144.034 169.888L20.6054 40.7993C19.3872 39.5956 17.7459 38.9191 16.0338 38.9191C14.3063 38.9192 12.6496 39.6067 11.4281 40.8309C10.2065 42.0552 9.52061 43.7157 9.52061 45.4471C9.52061 47.1784 10.2065 48.8389 11.4281 50.0632L11.495 50.1303L11.5608 50.1988L145.831 190.877L150.482 195.749L146.858 201.43C138.017 215.291 125.679 219.896 110.291 223.75C95.5063 227.451 77.0411 230.68 50.9231 239.682C50.8355 239.938 50.7457 240.206 50.6531 240.486C49.7392 243.254 48.6353 247.143 47.8733 251.605C46.512 259.577 46.4115 268.369 49.4038 275.889C77.9189 281.859 105.872 290.276 132.951 301.053L145.338 305.982L135.715 315.223L3.05661 442.615L2.78276 442.877L2.48713 443.114C1.76802 443.692 1.17627 444.413 0.750476 445.233C0.32466 446.052 0.0743607 446.951 0.014159 447.873C-0.0460141 448.794 0.0860607 449.719 0.401699 450.587C0.717346 451.454 1.20947 452.247 1.84744 452.914C2.48532 453.58 3.25494 454.107 4.10693 454.459C4.95893 454.812 5.87474 454.982 6.79599 454.962C7.71732 454.94 8.6243 454.725 9.45888 454.333C10.2933 453.94 11.0376 453.379 11.6435 452.683L11.8951 452.394L12.1703 452.129L145.724 323.84L150.352 319.395L155.912 322.594C157.12 323.289 158.493 323.641 159.886 323.611L167.635 323.446L168.566 331.158L192.483 529.113L193.463 537.229L185.422 538.603L115.464 550.542L112.65 551.023C112.403 553.232 112.169 555.521 111.962 557.855C111.356 564.723 110.987 571.853 111.108 578.426L125.174 581.354L189.846 594.821L196.225 596.149L196.644 602.616L196.647 602.647C196.651 602.691 196.659 602.784 196.673 602.915C196.703 603.182 196.757 603.599 196.848 604.115C197.034 605.182 197.344 606.484 197.816 607.684C198.31 608.94 198.801 609.625 199.099 609.912C199.228 610.036 199.166 609.992 199.275 609.994C199.289 609.994 200.265 610.11 201.833 607.18C202.493 605.945 202.986 604.624 203.315 603.559C203.475 603.042 203.584 602.625 203.65 602.357C203.681 602.23 203.702 602.139 203.712 602.092ZM203.712 602.092C203.712 602.089 203.713 602.086 203.714 602.084L203.718 602.064C203.72 602.057 203.72 602.052 203.72 602.052C203.72 602.052 203.719 602.062 203.715 602.077L203.713 602.086L203.712 602.092ZM196.646 602.645C196.646 602.647 196.647 602.65 196.647 602.653V602.658L196.646 602.645Z" fill="black"/>
</svg>
