<svg width="464" height="665" viewBox="0 0 464 665" fill="none" xmlns="http://www.w3.org/2000/svg">
<path d="M223.163 640.856L224.368 634.759L230.503 633.73L300.658 621.959L316.261 619.341C316.626 612.714 316.539 605.539 316.205 598.59C316.087 596.118 315.934 593.692 315.767 591.349L312.628 590.654L240.024 574.551L231.692 572.703L233.096 564.284L267.561 357.491L268.906 349.426L277.062 349.992C278.279 350.076 279.501 349.896 280.642 349.463C281.783 349.031 282.817 348.355 283.672 347.484L290.174 340.866L296.592 347.565L434.729 491.725C436.01 492.989 437.738 493.699 439.539 493.699C441.355 493.699 443.097 492.978 444.381 491.693C445.665 490.409 446.387 488.667 446.387 486.851C446.387 485.035 445.665 483.293 444.381 482.009L444.335 481.964L444.291 481.918L306.9 340.571L296.835 330.216L310.564 325.742C337.692 316.899 365.444 310.105 393.585 305.414C397.04 297.698 397.282 288.518 396.153 280.127C395.522 275.431 394.506 271.318 393.647 268.385C393.552 268.06 393.458 267.751 393.368 267.458C368.514 257.521 350.024 252.974 335.422 248.864C320.524 244.67 307.749 240.538 298.626 229.603L293.244 223.152L299.312 217.339L451.958 71.0955L452.074 70.985L452.194 70.8779C452.948 70.205 453.562 69.3887 453.999 68.4769C454.436 67.5655 454.689 66.5765 454.741 65.567C454.793 64.5573 454.645 63.5463 454.304 62.5943C453.994 61.7294 453.53 60.9298 452.937 60.2299C452.27 59.6315 451.503 59.1544 450.668 58.826C449.745 58.4629 448.758 58.2868 447.767 58.3068C446.775 58.3267 445.797 58.5429 444.889 58.9427C443.981 59.3427 443.161 59.9184 442.477 60.6366L442.333 60.7879L442.182 60.9329L298.857 198.042L286.988 209.398L283.806 193.281C280.882 178.466 278.589 158.849 276.232 132.545L276.232 132.537C270.651 69.6624 257.696 38.4774 247.147 23.2539C241.918 15.7081 237.305 12.1129 234.456 10.43C233.543 9.89052 232.787 9.53345 232.221 9.30095C231.693 9.50268 230.996 9.81074 230.154 10.2753C227.37 11.8105 222.758 15.1875 217.351 22.5171C206.437 37.3119 192.459 67.9865 184.13 130.667L184.128 130.679C181.208 152.437 178.627 169.601 175.722 183.16L172.166 199.755L160.423 187.502L30.6627 52.0968C29.382 50.8342 27.6565 50.1246 25.8566 50.1246C24.0405 50.1247 22.2988 50.8458 21.0146 52.1299C19.7304 53.4141 19.0093 55.1559 19.0093 56.972C19.0093 58.788 19.7304 60.5298 21.0146 61.814L21.085 61.8844L21.1541 61.9562L162.312 209.519L167.202 214.629L163.392 220.588C154.097 235.127 141.127 239.958 124.949 244C109.406 247.882 89.9935 251.269 62.5357 260.712C62.4436 260.98 62.3492 261.261 62.2519 261.555C61.2911 264.459 60.1306 268.538 59.3295 273.218C57.8983 281.58 57.7927 290.803 60.9385 298.691C90.9164 304.953 120.303 313.782 148.772 325.086L161.794 330.256L151.677 339.949L12.2137 473.575L11.9258 473.85L11.615 474.099C10.859 474.705 10.2369 475.461 9.78926 476.321C9.3416 477.18 9.07846 478.124 9.01517 479.091C8.95191 480.057 9.09076 481.027 9.42259 481.937C9.75443 482.847 10.2718 483.679 10.9425 484.378C11.6131 485.077 12.4222 485.63 13.3179 485.999C14.2136 486.369 15.1764 486.548 16.1449 486.526C17.1135 486.503 18.067 486.278 18.9444 485.867C19.8216 485.455 20.6041 484.866 21.2411 484.136L21.5056 483.833L21.7949 483.555L162.2 348.988L167.065 344.325L172.91 347.681C174.18 348.41 175.624 348.779 177.088 348.748L185.235 348.575L186.214 356.664L211.358 564.306L212.388 572.819L203.934 574.26L130.388 586.784L127.429 587.288C127.17 589.605 126.923 592.006 126.706 594.455C126.069 601.659 125.681 609.138 125.808 616.032L140.596 619.104L208.585 633.229L215.291 634.622L215.732 641.406L215.735 641.438C215.739 641.485 215.748 641.582 215.763 641.72C215.794 642 215.851 642.437 215.946 642.978C216.142 644.098 216.468 645.463 216.964 646.722C217.483 648.039 218 648.758 218.313 649.059C218.449 649.189 218.383 649.143 218.498 649.145C218.513 649.145 219.539 649.267 221.187 646.193C221.881 644.898 222.399 643.512 222.745 642.395C222.913 641.853 223.028 641.415 223.097 641.134C223.13 641.001 223.152 640.906 223.163 640.856ZM223.163 640.856C223.163 640.853 223.164 640.85 223.165 640.848L223.169 640.827C223.171 640.82 223.171 640.815 223.171 640.814C223.171 640.816 223.17 640.825 223.166 640.841L223.164 640.85C223.164 640.852 223.163 640.855 223.163 640.856ZM315.79 625.264C315.059 632.114 313.789 637.075 312.259 640.013L303.676 648.595L303.066 647.171L309.93 635.355L315.79 625.264ZM215.734 641.436C215.734 641.439 215.735 641.442 215.735 641.445C215.735 641.446 215.735 641.449 215.735 641.45L215.734 641.436ZM130.791 632.088L137.17 644.283L136.678 645.306L128.897 636.352C127.625 633.532 126.659 629.112 126.162 623.243L130.791 632.088Z" fill="white" stroke="black" stroke-width="18"/>
</svg>
