<svg width="900" height="718" viewBox="0 0 900 718" fill="none" xmlns="http://www.w3.org/2000/svg">
<path d="M530.966 163.483L503.389 67.458C500.357 56.7968 494.653 47.0858 486.819 39.2444C484.573 37.0585 482.136 35.0786 479.536 33.3283L590.976 33.3283L590.976 -5.31356e-06L308.134 5.47603e-06L308.134 33.3283L419.597 33.3047C416.997 35.055 414.56 37.035 412.314 39.2208C404.479 47.0566 398.769 56.758 395.72 67.4108L368.143 163.483H33.8232C24.8644 163.521 16.2832 167.096 9.94827 173.431C3.61333 179.766 0.0377099 188.347 -3.1062e-05 197.306L0.0706731 249.09C0.0876566 262.851 4.64535 276.221 13.0367 287.126C21.428 298.032 33.1838 305.864 46.4804 309.406C138.635 332.268 233.507 342.286 328.404 339.176L368.568 339.176L387.518 506.854L322.228 528.02C314.584 529.945 307.803 534.371 302.964 540.594C298.125 546.817 295.506 554.479 295.523 562.362L295.523 602.479C295.488 610.184 298.04 617.678 302.771 623.759C307.503 629.841 314.139 634.158 321.616 636.019L432.891 663.808L432.891 700.201C432.852 702.413 433.255 704.612 434.075 706.667C434.895 708.723 436.117 710.594 437.668 712.173C439.219 713.751 441.069 715.005 443.11 715.86C445.151 716.716 447.342 717.157 449.555 717.157C451.768 717.157 453.959 716.716 456 715.86C458.041 715.005 459.891 713.751 461.442 712.173C462.993 710.594 464.214 708.723 465.035 706.667C465.855 704.612 466.257 702.413 466.219 700.201L466.243 663.832L577.518 635.995C584.993 634.153 591.632 629.851 596.369 623.781C601.105 617.711 603.664 610.225 603.633 602.526L603.633 562.409C603.722 554.693 601.251 547.165 596.607 541.003C591.963 534.84 585.407 530.391 577.965 528.35L511.639 506.854L530.589 339.176L570.399 339.152C665.413 342.283 760.403 332.273 852.676 309.406C865.986 305.86 877.753 298.018 886.149 287.099C894.545 276.18 899.101 262.794 899.11 249.019L899.086 197.424C899.094 192.975 898.224 188.568 896.527 184.455C894.829 180.342 892.337 176.605 889.193 173.456C886.049 170.308 882.315 167.811 878.205 166.108C874.095 164.404 869.689 163.528 865.239 163.53L530.966 163.483ZM427.776 76.5561C429.263 71.3646 432.045 66.6361 435.861 62.8147C439.486 59.189 444.404 57.1521 449.531 57.1521C454.659 57.1521 459.576 59.189 463.202 62.8147C467.045 66.6413 469.845 71.3882 471.334 76.6032L496.295 163.507L402.792 163.483L427.776 76.5561ZM865.758 249.043C865.755 255.463 863.629 261.702 859.711 266.788C855.793 271.874 850.304 275.521 844.097 277.162C754.747 299.269 662.769 308.914 570.777 305.824L500.82 305.824L475.435 530.141L567.689 560.029L569.763 562.197L570.282 562.338L569.409 603.657L466.219 629.443L466.219 605.873C466.038 601.576 464.203 597.515 461.097 594.54C457.992 591.565 453.856 589.905 449.555 589.908C445.255 589.911 441.121 591.576 438.02 594.556C434.919 597.536 433.089 601.599 432.914 605.896L432.891 629.301L328.805 602.526L328.828 562.338L423.698 530.118L398.313 305.8L328.003 305.824C236.12 308.904 144.253 299.258 55.0129 277.162C48.8173 275.513 43.339 271.865 39.427 266.786C35.515 261.706 33.3879 255.478 33.3754 249.067L33.894 196.788L449.814 197.071L865.734 197.354L865.758 249.043Z" fill="black"/>
<path d="M530.966 163.483L503.389 67.458C500.357 56.7968 494.653 47.0858 486.819 39.2444C484.573 37.0585 482.136 35.0786 479.536 33.3283L590.976 33.3283L590.976 -5.31356e-06L308.134 5.47603e-06L308.134 33.3283L419.597 33.3047C416.997 35.055 414.56 37.035 412.314 39.2208C404.479 47.0566 398.769 56.758 395.72 67.4108L368.143 163.483H33.8232C24.8644 163.521 16.2832 167.096 9.94827 173.431C3.61333 179.766 0.0377099 188.347 -3.1062e-05 197.306L0.0706731 249.09C0.0876566 262.851 4.64535 276.221 13.0367 287.126C21.428 298.032 33.1838 305.864 46.4804 309.406C138.635 332.268 233.507 342.286 328.404 339.176L368.568 339.176L387.518 506.854L322.228 528.02C314.584 529.945 307.803 534.371 302.964 540.594C298.125 546.817 295.506 554.479 295.523 562.362L295.523 602.479C295.488 610.184 298.04 617.678 302.771 623.759C307.503 629.841 314.139 634.158 321.616 636.019L432.891 663.808L432.891 700.201C432.852 702.413 433.255 704.612 434.075 706.667C434.895 708.723 436.117 710.594 437.668 712.173C439.219 713.751 441.069 715.005 443.11 715.86C445.151 716.716 447.342 717.157 449.555 717.157C451.768 717.157 453.959 716.716 456 715.86C458.041 715.005 459.891 713.751 461.442 712.173C462.993 710.594 464.214 708.723 465.035 706.667C465.855 704.612 466.257 702.413 466.219 700.201L466.243 663.832L577.518 635.995C584.993 634.153 591.632 629.851 596.369 623.781C601.105 617.711 603.664 610.225 603.633 602.526L603.633 562.409C603.722 554.693 601.251 547.165 596.607 541.003C591.963 534.84 585.407 530.391 577.965 528.35L511.639 506.854L530.589 339.176L570.399 339.152C665.413 342.283 760.403 332.273 852.676 309.406C865.986 305.86 877.753 298.018 886.149 287.099C894.545 276.18 899.101 262.794 899.11 249.019L899.086 197.424C899.094 192.975 898.224 188.568 896.527 184.455C894.829 180.342 892.337 176.605 889.193 173.456C886.049 170.308 882.315 167.811 878.205 166.108C874.095 164.404 869.689 163.528 865.239 163.53L530.966 163.483ZM427.776 76.5561C429.263 71.3646 432.045 66.6361 435.861 62.8147C439.486 59.189 444.404 57.1521 449.531 57.1521C454.659 57.1521 459.576 59.189 463.202 62.8147C467.045 66.6413 469.845 71.3882 471.334 76.6032L496.295 163.507L402.792 163.483L427.776 76.5561ZM865.758 249.043C865.755 255.463 863.629 261.702 859.711 266.788C855.793 271.874 850.304 275.521 844.097 277.162C754.747 299.269 662.769 308.914 570.777 305.824L500.82 305.824L475.435 530.141L567.689 560.029L569.763 562.197L570.282 562.338L569.409 603.657L466.219 629.443L466.219 605.873C466.038 601.576 464.203 597.515 461.097 594.54C457.992 591.565 453.856 589.905 449.555 589.908C445.255 589.911 441.121 591.576 438.02 594.556C434.919 597.536 433.089 601.599 432.914 605.896L432.891 629.301L328.805 602.526L328.828 562.338L423.698 530.118L398.313 305.8L328.003 305.824C236.12 308.904 144.253 299.258 55.0129 277.162C48.8173 275.513 43.339 271.865 39.427 266.786C35.515 261.706 33.3879 255.478 33.3754 249.067L33.894 196.788L449.814 197.071L865.734 197.354L865.758 249.043Z" fill="#F9F9F9" fill-opacity="0.2"/>
<path d="M865.758 249.043C865.755 255.463 863.629 261.702 859.711 266.788C855.793 271.874 850.304 275.521 844.097 277.162C754.747 299.269 662.769 308.914 570.777 305.824L500.82 305.824L475.435 530.141L567.689 560.029L569.763 562.197L570.282 562.338L569.409 603.657L466.219 629.443L466.219 605.873C466.038 601.576 464.203 597.515 461.097 594.54C457.992 591.565 453.856 589.905 449.555 589.908C445.255 589.911 441.121 591.576 438.02 594.556C434.919 597.536 433.089 601.599 432.914 605.896L432.891 629.301L328.805 602.526L328.828 562.338L423.698 530.118L398.313 305.8L328.003 305.824C236.12 308.904 144.253 299.258 55.0129 277.162C48.8173 275.513 43.339 271.865 39.427 266.786C35.515 261.706 33.3879 255.478 33.3754 249.067L33.894 196.788L449.814 197.071L865.734 197.354L865.758 249.043Z" fill="white"/>
<path d="M865.758 249.043C865.755 255.463 863.629 261.702 859.711 266.788C855.793 271.874 850.304 275.521 844.097 277.162C754.747 299.269 662.769 308.914 570.777 305.824L500.82 305.824L475.435 530.141L567.689 560.029L569.763 562.197L570.282 562.338L569.409 603.657L466.219 629.443L466.219 605.873C466.038 601.576 464.203 597.515 461.097 594.54C457.992 591.565 453.856 589.905 449.555 589.908C445.255 589.911 441.121 591.576 438.02 594.556C434.919 597.536 433.089 601.599 432.914 605.896L432.891 629.301L328.805 602.526L328.828 562.338L423.698 530.118L398.313 305.8L328.003 305.824C236.12 308.904 144.253 299.258 55.0129 277.162C48.8173 275.513 43.339 271.865 39.427 266.786C35.515 261.706 33.3879 255.478 33.3754 249.067L33.894 196.788L449.814 197.071L865.734 197.354L865.758 249.043Z" fill="#F9F9F9" fill-opacity="0.2"/>
<path d="M427.776 76.5561C429.263 71.3646 432.045 66.6361 435.861 62.8147C439.486 59.189 444.404 57.1521 449.531 57.1521C454.659 57.1521 459.576 59.189 463.202 62.8147C467.045 66.6413 469.845 71.3882 471.334 76.6032L496.295 163.507L402.792 163.483L427.776 76.5561Z" fill="white"/>
<path d="M427.776 76.5561C429.263 71.3646 432.045 66.6361 435.861 62.8147C439.486 59.189 444.404 57.1521 449.531 57.1521C454.659 57.1521 459.576 59.189 463.202 62.8147C467.045 66.6413 469.845 71.3882 471.334 76.6032L496.295 163.507L402.792 163.483L427.776 76.5561Z" fill="#F9F9F9" fill-opacity="0.2"/>
</svg>
