<svg width="478" height="608" viewBox="0 0 478 608" fill="none" xmlns="http://www.w3.org/2000/svg">
<path d="M211.229 41.339C211.229 11.284 229.743 1.59237 239 0.503418C248.257 1.5953 266.771 11.3131 266.771 41.4491V227.743L477.5 392.751V459.503L310.877 371.29H266.771V392.525H304.342C307.61 410.541 305.976 483.662 304.342 486.938C302.836 489.958 278.205 486.938 266.771 490.213C260.236 493.489 256.969 498.402 256.969 511.505V523.199L310.877 565.745V606.503L239 593.436L167.123 606.503V565.751L221.031 523.199V510.131C221.031 497.064 217.764 492.164 211.229 488.897C199.795 485.63 175.164 488.642 173.658 485.63C172.024 482.363 170.39 410.493 173.658 392.525H211.229V371.29H167.123L0.5 459.503V392.756L211.229 227.742V41.339Z" fill="black" stroke="black"/>
</svg>
